<svg xmlns="http://www.w3.org/2000/svg" version="1.1" xmlns:xlink="http://www.w3.org/1999/xlink" xmlns:svgjs="http://svgjs.com/svgjs" width="1440" height="560" preserveAspectRatio="none" viewBox="0 0 1440 560"><g mask="url(&quot;#SvgjsMask1044&quot;)" fill="none"><rect width="1440" height="560" x="0" y="0" fill="rgba(225, 192, 118, 1)"></rect><path d="M0,687.183C131.455,686.78,272.936,664.347,369.919,575.606C462.98,490.453,468.64,350.712,500.968,228.785C527.98,126.907,570.476,23.713,543.248,-78.107C517.152,-175.696,418.398,-229.13,357.055,-309.39C290.47,-396.508,270.728,-533.387,167.346,-569.927C64.311,-606.345,-39.389,-521.624,-142.712,-486.031C-240.73,-452.266,-351.776,-441.861,-423.027,-366.555C-495.402,-290.062,-501.522,-177.526,-530.419,-76.263C-564.167,41.997,-635.751,157.569,-606.697,277.069C-576,403.328,-479.028,505.11,-371.379,577.878C-262.26,651.64,-131.71,687.587,0,687.183" fill="#d5a63e"></path><path d="M1440 876.438C1522.732 882.698 1601.38 962.267 1677.879 930.1469999999999 1752.969 898.6179999999999 1769.54 799.982 1801 724.863 1831.504 652.027 1881.52 575.294 1858.0720000000001 499.89 1834.771 424.957 1745.454 397.366 1683.99 348.581 1634.8319999999999 309.56399999999996 1589.066 270.994 1533.3319999999999 242.14 1465.312 206.925 1399.625 159.81799999999998 1323.054 161.719 1236.623 163.865 1142.566 187.872 1085.989 253.248 1029.4180000000001 318.618 1024.887 414.64599999999996 1029.464 500.974 1033.51 577.298 1076.43 642.05 1110.2359999999999 710.598 1142.96 776.954 1158.087 862.5740000000001 1224.185 895.815 1290.046 928.937 1366.489 870.875 1440 876.438" fill="#eddaae"></path></g><defs><mask id="SvgjsMask1044"><rect width="1440" height="560" fill="#ffffff"></rect></mask></defs></svg>